<svg width="27" height="27" viewBox="0 0 27 27" fill="none" xmlns="http://www.w3.org/2000/svg">
<path d="M10.7941 7.83307H7.12496C6.9371 7.83307 6.75693 7.9077 6.62409 8.04053C6.49125 8.17337 6.41663 8.35354 6.41663 8.5414C6.41663 8.72926 6.49125 8.90943 6.62409 9.04227C6.75693 9.17511 6.9371 9.24973 7.12496 9.24973H10.7941C10.943 9.65997 11.2146 10.0144 11.572 10.2649C11.9294 10.5154 12.3552 10.6497 12.7916 10.6497C13.228 10.6497 13.6539 10.5154 14.0113 10.2649C14.3686 10.0144 14.6402 9.65997 14.7891 9.24973H19.875C20.0628 9.24973 20.243 9.17511 20.3758 9.04227C20.5087 8.90943 20.5833 8.72926 20.5833 8.5414C20.5833 8.35354 20.5087 8.17337 20.3758 8.04053C20.243 7.9077 20.0628 7.83307 19.875 7.83307H14.7891C14.6402 7.42284 14.3686 7.06839 14.0113 6.81791C13.6539 6.56743 13.228 6.43306 12.7916 6.43306C12.3552 6.43306 11.9294 6.56743 11.572 6.81791C11.2146 7.06839 10.943 7.42284 10.7941 7.83307V7.83307ZM13.5 8.5414C13.5 8.6815 13.4584 8.81845 13.3806 8.93493C13.3028 9.05142 13.1921 9.1422 13.0627 9.19582C12.9333 9.24943 12.7908 9.26346 12.6534 9.23612C12.516 9.20879 12.3898 9.14133 12.2908 9.04227C12.1917 8.94321 12.1242 8.81699 12.0969 8.67959C12.0696 8.54219 12.0836 8.39977 12.1372 8.27033C12.1908 8.1409 12.2816 8.03028 12.3981 7.95244C12.5146 7.87461 12.6515 7.83307 12.7916 7.83307C12.9795 7.83307 13.1597 7.9077 13.2925 8.04053C13.4253 8.17337 13.5 8.35354 13.5 8.5414ZM15.0441 12.7914H7.12496C6.9371 12.7914 6.75693 12.866 6.62409 12.9989C6.49125 13.1317 6.41663 13.3119 6.41663 13.4997C6.41663 13.6876 6.49125 13.8678 6.62409 14.0006C6.75693 14.1334 6.9371 14.2081 7.12496 14.2081H15.0441C15.193 14.6183 15.4646 14.9727 15.822 15.2232C16.1794 15.4737 16.6052 15.6081 17.0416 15.6081C17.478 15.6081 17.9039 15.4737 18.2613 15.2232C18.6186 14.9727 18.8902 14.6183 19.0391 14.2081H19.875C20.0628 14.2081 20.243 14.1334 20.3758 14.0006C20.5087 13.8678 20.5833 13.6876 20.5833 13.4997C20.5833 13.3119 20.5087 13.1317 20.3758 12.9989C20.243 12.866 20.0628 12.7914 19.875 12.7914H19.0391C18.8902 12.3812 18.6186 12.0267 18.2613 11.7762C17.9039 11.5258 17.478 11.3914 17.0416 11.3914C16.6052 11.3914 16.1794 11.5258 15.822 11.7762C15.4646 12.0267 15.193 12.3812 15.0441 12.7914ZM17.75 13.4997C17.75 13.6398 17.7084 13.7768 17.6306 13.8933C17.5528 14.0097 17.4421 14.1005 17.3127 14.1541C17.1833 14.2078 17.0408 14.2218 16.9034 14.1945C16.766 14.1671 16.6398 14.0997 16.5408 14.0006C16.4417 13.9015 16.3742 13.7753 16.3469 13.6379C16.3196 13.5005 16.3336 13.3581 16.3872 13.2287C16.4408 13.0992 16.5316 12.9886 16.6481 12.9108C16.7646 12.8329 16.9015 12.7914 17.0416 12.7914C17.2295 12.7914 17.4097 12.866 17.5425 12.9989C17.6753 13.1317 17.75 13.3119 17.75 13.4997ZM9.37746 17.7497H7.12496C6.9371 17.7497 6.75693 17.8244 6.62409 17.9572C6.49125 18.09 6.41663 18.2702 6.41663 18.4581C6.41663 18.6459 6.49125 18.8261 6.62409 18.9589C6.75693 19.0918 6.9371 19.1664 7.12496 19.1664H9.37746C9.52635 19.5766 9.79795 19.9311 10.1553 20.1816C10.5127 20.432 10.9385 20.5664 11.375 20.5664C11.8114 20.5664 12.2372 20.432 12.5946 20.1816C12.952 19.9311 13.2236 19.5766 13.3725 19.1664H19.875C20.0628 19.1664 20.243 19.0918 20.3758 18.9589C20.5087 18.8261 20.5833 18.6459 20.5833 18.4581C20.5833 18.2702 20.5087 18.09 20.3758 17.9572C20.243 17.8244 20.0628 17.7497 19.875 17.7497H13.3725C13.2236 17.3395 12.952 16.9851 12.5946 16.7346C12.2372 16.4841 11.8114 16.3497 11.375 16.3497C10.9385 16.3497 10.5127 16.4841 10.1553 16.7346C9.79795 16.9851 9.52635 17.3395 9.37746 17.7497V17.7497ZM12.0833 18.4581C12.0833 18.5982 12.0417 18.7351 11.9639 18.8516C11.8861 18.9681 11.7755 19.0589 11.646 19.1125C11.5166 19.1661 11.3742 19.1801 11.2368 19.1528C11.0994 19.1255 10.9732 19.058 10.8741 18.9589C10.775 18.8599 10.7076 18.7337 10.6802 18.5963C10.6529 18.4589 10.6669 18.3164 10.7205 18.187C10.7742 18.0576 10.8649 17.9469 10.9814 17.8691C11.0979 17.7913 11.2349 17.7497 11.375 17.7497C11.5628 17.7497 11.743 17.8244 11.8758 17.9572C12.0087 18.09 12.0833 18.2702 12.0833 18.4581Z" fill="#160042"/>
<rect x="1" y="1" width="25" height="25" rx="12.5" stroke="#160042" stroke-width="2"/>
</svg>
