<svg width="27" height="27" viewBox="0 0 27 27" fill="none" xmlns="http://www.w3.org/2000/svg">
<path d="M17.6738 9.32582C17.5692 9.22038 17.4448 9.13668 17.3077 9.07957C17.1706 9.02245 17.0236 8.99305 16.8751 8.99305C16.7265 8.99305 16.5795 9.02245 16.4424 9.07957C16.3053 9.13668 16.1809 9.22038 16.0763 9.32582L13.5001 11.9133L10.9238 9.32582C10.712 9.11398 10.4246 8.99497 10.1251 8.99497C9.82547 8.99497 9.53815 9.11398 9.32631 9.32582C9.11447 9.53766 8.99546 9.82498 8.99546 10.1246C8.99546 10.4242 9.11447 10.7115 9.32631 10.9233L11.9138 13.4996L9.32631 16.0758C9.22086 16.1804 9.13717 16.3048 9.08006 16.4419C9.02294 16.579 8.99354 16.7261 8.99354 16.8746C8.99354 17.0231 9.02294 17.1701 9.08006 17.3072C9.13717 17.4443 9.22086 17.5687 9.32631 17.6733C9.43089 17.7788 9.55532 17.8625 9.69241 17.9196C9.8295 17.9767 9.97655 18.0061 10.1251 18.0061C10.2736 18.0061 10.4206 17.9767 10.5577 17.9196C10.6948 17.8625 10.8192 17.7788 10.9238 17.6733L13.5001 15.0858L16.0763 17.6733C16.1809 17.7788 16.3053 17.8625 16.4424 17.9196C16.5795 17.9767 16.7265 18.0061 16.8751 18.0061C17.0236 18.0061 17.1706 17.9767 17.3077 17.9196C17.4448 17.8625 17.5692 17.7788 17.6738 17.6733C17.7793 17.5687 17.8629 17.4443 17.9201 17.3072C17.9772 17.1701 18.0066 17.0231 18.0066 16.8746C18.0066 16.7261 17.9772 16.579 17.9201 16.4419C17.8629 16.3048 17.7793 16.1804 17.6738 16.0758L15.0863 13.4996L17.6738 10.9233C17.7793 10.8187 17.8629 10.6943 17.9201 10.5572C17.9772 10.4201 18.0066 10.2731 18.0066 10.1246C18.0066 9.97606 17.9772 9.82901 17.9201 9.69192C17.8629 9.55483 17.7793 9.4304 17.6738 9.32582V9.32582ZM21.4538 5.54582C20.416 4.47133 19.1747 3.61428 17.8021 3.02468C16.4296 2.43508 14.9533 2.12473 13.4596 2.11175C11.9658 2.09877 10.4844 2.38342 9.10183 2.94908C7.71924 3.51474 6.46316 4.35008 5.40687 5.40638C4.35057 6.46267 3.51522 7.71875 2.94956 9.10134C2.3839 10.4839 2.09926 11.9653 2.11224 13.4591C2.12522 14.9529 2.43557 16.4291 3.02517 17.8016C3.61477 19.1742 4.47182 20.4155 5.54631 21.4533C6.58409 22.5278 7.82546 23.3849 9.19801 23.9745C10.5706 24.5641 12.0468 24.8744 13.5405 24.8874C15.0343 24.9004 16.5157 24.6157 17.8983 24.0501C19.2809 23.4844 20.537 22.6491 21.5933 21.5928C22.6495 20.5365 23.4849 19.2804 24.0506 17.8978C24.6162 16.5152 24.9009 15.0338 24.8879 13.5401C24.8749 12.0463 24.5646 10.5701 23.975 9.19752C23.3853 7.82497 22.5283 6.5836 21.4538 5.54582V5.54582ZM19.8676 19.8671C18.3961 21.3402 16.4594 22.2575 14.3875 22.4628C12.3155 22.6681 10.2364 22.1486 8.50452 20.9929C6.7726 19.8372 5.49496 18.1168 4.88928 16.1247C4.28359 14.1327 4.38734 11.9922 5.18284 10.0681C5.97833 8.14393 7.41637 6.55511 9.25194 5.57233C11.0875 4.58954 13.207 4.27359 15.2494 4.6783C17.2918 5.08301 19.1307 6.18335 20.4528 7.79184C21.7749 9.40033 22.4984 11.4175 22.5001 13.4996C22.5041 14.6823 22.2735 15.854 21.8216 16.947C21.3697 18.04 20.7056 19.0325 19.8676 19.8671V19.8671Z" fill="#160042"/>
</svg>
