<svg width="295" height="295" viewBox="0 0 295 295" fill="none" xmlns="http://www.w3.org/2000/svg">
<path d="M64.5312 207.483V94.5374C64.5312 88.1482 69.7107 82.9688 76.0999 82.9688H153.646H218.9C225.289 82.9688 230.469 88.1482 230.469 94.5374V207.483C230.469 220.178 220.178 230.469 207.483 230.469H153.646H87.5167C74.8222 230.469 64.5312 220.178 64.5312 207.483Z" stroke="#7AD9FF" stroke-width="2" stroke-linecap="round" stroke-linejoin="round"/>
<path d="M64.5312 156.719H99.0564C105.446 156.719 110.453 162.021 112.425 168.099C112.724 169.021 113.06 169.932 113.432 170.83C115.285 175.304 118.001 179.369 121.425 182.793C124.85 186.217 128.915 188.934 133.389 190.787C137.862 192.64 142.658 193.594 147.5 193.594C152.342 193.594 157.138 192.64 161.611 190.787C166.085 188.934 170.15 186.217 173.575 182.793C176.999 179.369 179.715 175.304 181.568 170.83C181.94 169.932 182.276 169.021 182.575 168.099C184.547 162.021 189.554 156.719 195.944 156.719L230.469 156.719" stroke="#7AD9FF" stroke-width="2" stroke-linecap="round" stroke-linejoin="round"/>
</svg>
